<svg width="320" height="363" viewBox="0 0 320 363" fill="none" xmlns="http://www.w3.org/2000/svg">
<path fill-rule="evenodd" clip-rule="evenodd" d="M42.601 1.594C22.259 6.516 5.778 23.394 1.473 43.713C0.258 49.448 0.0320002 74.71 0.0170002 206.75L0 363H20.5H41V208.468C41 80.94 41.236 53.371 42.351 50.702C43.094 48.924 43.474 47.279 45.5 45.5C48.997 42.43 51.392 41 59 41C68.839 41 72.674 41.663 75.5 47.5L76.5 49.5L77 52.631V207.816V363H97.488H117.976L118.238 206.25C118.492 54.176 118.557 49.416 120.398 46.699C123.373 42.31 126.961 41 136.009 41H144.116L150 43.713L153.5 49.866L153.759 206.433L154.019 363H174.509H195V207.332C195 96.889 194.674 49.752 193.879 45.082C191.236 29.574 178.968 13.192 164.764 6.203C146.244 -2.91 119.28 -1.869 102.709 8.599C97.699 11.764 97.405 11.827 95 10.246C83.878 2.933 73.236 -0.0379998 58.59 0.0830002C53.041 0.129 45.846 0.809 42.601 1.594ZM216 20.5V41H232H248V202V363H268.5H289V202V41H304.5H320V20.5V0H268H216V20.5Z" fill="#333333"/>
</svg>
